<mxfile host="app.diagrams.net" modified="2022-08-02T05:19:42.017Z" agent="5.0 (Macintosh; Intel Mac OS X 10_15_7) AppleWebKit/605.1.15 (KHTML, like Gecko) Version/15.5 Safari/605.1.15" etag="tm-YoH6tUwkkWCzuIWEn" version="20.2.2" type="github">
  <diagram name="Page-1" id="9c096ad6-e400-ecc8-3e38-643d2caac077">
    <mxGraphModel dx="1455" dy="992" grid="1" gridSize="10" guides="1" tooltips="1" connect="1" arrows="1" fold="1" page="1" pageScale="1.5" pageWidth="1169" pageHeight="826" background="none" math="0" shadow="0">
      <root>
        <mxCell id="0" style=";html=1;" />
        <mxCell id="1" style=";html=1;" parent="0" />
        <mxCell id="1x55_960oe8w4erW_eMf-4" value="&lt;font face=&quot;Verdana&quot; style=&quot;font-size: 30px;&quot;&gt;&lt;b&gt;Platform for Recommending Open Source Projects using unsupervised learning algorithms&lt;/b&gt;&lt;/font&gt;" style="text;html=1;align=center;verticalAlign=middle;resizable=0;points=[];autosize=1;strokeColor=none;fillColor=none;" vertex="1" parent="1">
          <mxGeometry x="102" y="80" width="1550" height="50" as="geometry" />
        </mxCell>
        <mxCell id="1x55_960oe8w4erW_eMf-10" value="" style="group" vertex="1" connectable="0" parent="1">
          <mxGeometry x="705" y="180" width="120" height="40" as="geometry" />
        </mxCell>
        <mxCell id="1x55_960oe8w4erW_eMf-5" value="Authentication&lt;br&gt;4 Days" style="whiteSpace=wrap;html=1;verticalAlign=top;fillColor=#f5f5f5;strokeColor=#FF0000;gradientColor=none;rounded=0;shadow=1;" vertex="1" parent="1x55_960oe8w4erW_eMf-10">
          <mxGeometry width="120" height="40" as="geometry" />
        </mxCell>
        <mxCell id="1x55_960oe8w4erW_eMf-7" value="" style="endArrow=none;html=1;rounded=0;fontFamily=Verdana;fontSize=30;entryX=1;entryY=0.5;entryDx=0;entryDy=0;exitX=0;exitY=0.5;exitDx=0;exitDy=0;strokeColor=#575757;endSize=3;strokeWidth=0.5;" edge="1" parent="1x55_960oe8w4erW_eMf-10">
          <mxGeometry width="50" height="50" relative="1" as="geometry">
            <mxPoint y="19.71999999999997" as="sourcePoint" />
            <mxPoint x="120" y="19.71999999999997" as="targetPoint" />
          </mxGeometry>
        </mxCell>
        <mxCell id="1x55_960oe8w4erW_eMf-11" value="" style="group" vertex="1" connectable="0" parent="1">
          <mxGeometry x="705" y="330" width="120" height="40" as="geometry" />
        </mxCell>
        <mxCell id="1x55_960oe8w4erW_eMf-12" value="Survey Form&lt;br&gt;2 Days" style="whiteSpace=wrap;html=1;verticalAlign=top;fillColor=#f5f5f5;strokeColor=#FF0000;gradientColor=none;rounded=0;shadow=1;" vertex="1" parent="1x55_960oe8w4erW_eMf-11">
          <mxGeometry width="120" height="40" as="geometry" />
        </mxCell>
        <mxCell id="1x55_960oe8w4erW_eMf-13" value="" style="endArrow=none;html=1;rounded=0;fontFamily=Verdana;fontSize=30;entryX=1;entryY=0.5;entryDx=0;entryDy=0;exitX=0;exitY=0.5;exitDx=0;exitDy=0;strokeColor=#575757;endSize=3;strokeWidth=0.5;" edge="1" parent="1x55_960oe8w4erW_eMf-11">
          <mxGeometry width="50" height="50" relative="1" as="geometry">
            <mxPoint y="19.71999999999997" as="sourcePoint" />
            <mxPoint x="120" y="19.71999999999997" as="targetPoint" />
          </mxGeometry>
        </mxCell>
        <mxCell id="1x55_960oe8w4erW_eMf-14" style="edgeStyle=orthogonalEdgeStyle;rounded=0;orthogonalLoop=1;jettySize=auto;html=1;entryX=0.5;entryY=0;entryDx=0;entryDy=0;fontFamily=Verdana;fontSize=30;fontColor=#999999;endSize=3;strokeColor=#FF0000;strokeWidth=0.5;" edge="1" parent="1" source="1x55_960oe8w4erW_eMf-5" target="1x55_960oe8w4erW_eMf-12">
          <mxGeometry relative="1" as="geometry" />
        </mxCell>
        <mxCell id="1x55_960oe8w4erW_eMf-28" style="edgeStyle=orthogonalEdgeStyle;rounded=0;orthogonalLoop=1;jettySize=auto;html=1;entryX=0;entryY=0.5;entryDx=0;entryDy=0;fontFamily=Verdana;fontSize=30;fontColor=#999999;endSize=3;strokeColor=#FF0000;strokeWidth=0.5;" edge="1" parent="1" source="1x55_960oe8w4erW_eMf-15" target="1x55_960oe8w4erW_eMf-21">
          <mxGeometry relative="1" as="geometry" />
        </mxCell>
        <mxCell id="1x55_960oe8w4erW_eMf-29" style="edgeStyle=orthogonalEdgeStyle;rounded=0;orthogonalLoop=1;jettySize=auto;html=1;entryX=0;entryY=0.5;entryDx=0;entryDy=0;fontFamily=Verdana;fontSize=30;fontColor=#999999;endSize=3;strokeColor=#FF0000;strokeWidth=0.5;" edge="1" parent="1" source="1x55_960oe8w4erW_eMf-15" target="1x55_960oe8w4erW_eMf-18">
          <mxGeometry relative="1" as="geometry">
            <Array as="points">
              <mxPoint x="400" y="700" />
            </Array>
          </mxGeometry>
        </mxCell>
        <mxCell id="1x55_960oe8w4erW_eMf-15" value="Dashboard&amp;nbsp;&lt;br&gt;2-3 Weeks" style="whiteSpace=wrap;html=1;verticalAlign=top;fillColor=#f5f5f5;strokeColor=#FF0000;gradientColor=none;rounded=0;shadow=1;" vertex="1" parent="1">
          <mxGeometry x="340" y="510" width="120" height="40" as="geometry" />
        </mxCell>
        <mxCell id="1x55_960oe8w4erW_eMf-32" style="edgeStyle=orthogonalEdgeStyle;rounded=0;orthogonalLoop=1;jettySize=auto;html=1;entryX=0.5;entryY=0;entryDx=0;entryDy=0;fontFamily=Verdana;fontSize=30;fontColor=#999999;endSize=3;strokeColor=#FF0000;strokeWidth=0.5;" edge="1" parent="1" source="1x55_960oe8w4erW_eMf-17" target="1x55_960oe8w4erW_eMf-20">
          <mxGeometry relative="1" as="geometry" />
        </mxCell>
        <mxCell id="1x55_960oe8w4erW_eMf-33" style="edgeStyle=orthogonalEdgeStyle;rounded=0;orthogonalLoop=1;jettySize=auto;html=1;entryX=0.5;entryY=0;entryDx=0;entryDy=0;fontFamily=Verdana;fontSize=30;fontColor=#999999;endSize=3;strokeColor=#FF0000;strokeWidth=0.5;" edge="1" parent="1" source="1x55_960oe8w4erW_eMf-17" target="1x55_960oe8w4erW_eMf-19">
          <mxGeometry relative="1" as="geometry" />
        </mxCell>
        <mxCell id="1x55_960oe8w4erW_eMf-17" value="Exploration Work&lt;br&gt;3-4 Weeks" style="whiteSpace=wrap;html=1;verticalAlign=top;fillColor=#f5f5f5;strokeColor=#FF0000;gradientColor=none;rounded=0;shadow=1;" vertex="1" parent="1">
          <mxGeometry x="950" y="410" width="120" height="40" as="geometry" />
        </mxCell>
        <mxCell id="1x55_960oe8w4erW_eMf-36" style="edgeStyle=orthogonalEdgeStyle;rounded=0;orthogonalLoop=1;jettySize=auto;html=1;fontFamily=Verdana;fontSize=30;fontColor=#999999;endSize=3;strokeColor=#FF0000;strokeWidth=0.5;" edge="1" parent="1" source="1x55_960oe8w4erW_eMf-18" target="1x55_960oe8w4erW_eMf-23">
          <mxGeometry relative="1" as="geometry">
            <Array as="points">
              <mxPoint x="550" y="800" />
              <mxPoint x="780" y="800" />
              <mxPoint x="780" y="960" />
            </Array>
          </mxGeometry>
        </mxCell>
        <mxCell id="1x55_960oe8w4erW_eMf-18" value="Frontend Deployment&lt;br&gt;1 Week" style="whiteSpace=wrap;html=1;verticalAlign=top;fillColor=#f5f5f5;strokeColor=#FF0000;gradientColor=none;rounded=0;shadow=1;" vertex="1" parent="1">
          <mxGeometry x="490" y="680" width="120" height="40" as="geometry" />
        </mxCell>
        <mxCell id="1x55_960oe8w4erW_eMf-35" style="edgeStyle=orthogonalEdgeStyle;rounded=0;orthogonalLoop=1;jettySize=auto;html=1;entryX=0.455;entryY=0.009;entryDx=0;entryDy=0;entryPerimeter=0;fontFamily=Verdana;fontSize=30;fontColor=#999999;endSize=3;strokeColor=#FF0000;strokeWidth=0.5;" edge="1" parent="1" source="1x55_960oe8w4erW_eMf-19" target="1x55_960oe8w4erW_eMf-22">
          <mxGeometry relative="1" as="geometry" />
        </mxCell>
        <mxCell id="1x55_960oe8w4erW_eMf-19" value="Rest API&#39;s&lt;br&gt;1-2 Weeks" style="whiteSpace=wrap;html=1;verticalAlign=top;fillColor=#f5f5f5;strokeColor=#FF0000;gradientColor=none;rounded=0;shadow=1;" vertex="1" parent="1">
          <mxGeometry x="1030" y="510" width="120" height="40" as="geometry" />
        </mxCell>
        <mxCell id="1x55_960oe8w4erW_eMf-34" style="edgeStyle=orthogonalEdgeStyle;rounded=0;orthogonalLoop=1;jettySize=auto;html=1;entryX=0.455;entryY=-0.036;entryDx=0;entryDy=0;entryPerimeter=0;fontFamily=Verdana;fontSize=30;fontColor=#999999;endSize=3;strokeColor=#FF0000;strokeWidth=0.5;" edge="1" parent="1" source="1x55_960oe8w4erW_eMf-20" target="1x55_960oe8w4erW_eMf-22">
          <mxGeometry relative="1" as="geometry" />
        </mxCell>
        <mxCell id="1x55_960oe8w4erW_eMf-20" value="Recommendation Model&lt;br&gt;4 Weeks" style="whiteSpace=wrap;html=1;verticalAlign=top;fillColor=#f5f5f5;strokeColor=#FF0000;gradientColor=none;rounded=0;shadow=1;" vertex="1" parent="1">
          <mxGeometry x="830" y="510" width="180" height="40" as="geometry" />
        </mxCell>
        <mxCell id="1x55_960oe8w4erW_eMf-30" style="edgeStyle=orthogonalEdgeStyle;rounded=0;orthogonalLoop=1;jettySize=auto;html=1;fontFamily=Verdana;fontSize=30;fontColor=#999999;endSize=3;strokeColor=#FF0000;strokeWidth=0.5;" edge="1" parent="1" source="1x55_960oe8w4erW_eMf-21" target="1x55_960oe8w4erW_eMf-18">
          <mxGeometry relative="1" as="geometry" />
        </mxCell>
        <mxCell id="1x55_960oe8w4erW_eMf-21" value="Profile Page&lt;br&gt;1 Week" style="whiteSpace=wrap;html=1;verticalAlign=top;fillColor=#f5f5f5;strokeColor=#FF0000;gradientColor=none;rounded=0;shadow=1;" vertex="1" parent="1">
          <mxGeometry x="560" y="510" width="120" height="40" as="geometry" />
        </mxCell>
        <mxCell id="1x55_960oe8w4erW_eMf-38" style="edgeStyle=orthogonalEdgeStyle;rounded=0;orthogonalLoop=1;jettySize=auto;html=1;fontFamily=Verdana;fontSize=30;fontColor=#999999;endSize=3;strokeColor=#FF0000;strokeWidth=0.5;" edge="1" parent="1" source="1x55_960oe8w4erW_eMf-22" target="1x55_960oe8w4erW_eMf-23">
          <mxGeometry relative="1" as="geometry">
            <Array as="points">
              <mxPoint x="1030" y="800" />
              <mxPoint x="780" y="800" />
            </Array>
          </mxGeometry>
        </mxCell>
        <mxCell id="1x55_960oe8w4erW_eMf-22" value="Model Deployment&amp;nbsp;&lt;br&gt;1 Week" style="whiteSpace=wrap;html=1;verticalAlign=top;fillColor=#f5f5f5;strokeColor=#FF0000;gradientColor=none;rounded=0;shadow=1;" vertex="1" parent="1">
          <mxGeometry x="970" y="680" width="120" height="40" as="geometry" />
        </mxCell>
        <mxCell id="1x55_960oe8w4erW_eMf-23" value="Documentations&amp;nbsp;&lt;br&gt;2 Weeks" style="whiteSpace=wrap;html=1;verticalAlign=top;fillColor=#f5f5f5;strokeColor=#FF0000;gradientColor=none;rounded=0;shadow=1;" vertex="1" parent="1">
          <mxGeometry x="720" y="940" width="120" height="40" as="geometry" />
        </mxCell>
        <mxCell id="1x55_960oe8w4erW_eMf-25" style="edgeStyle=orthogonalEdgeStyle;rounded=0;orthogonalLoop=1;jettySize=auto;html=1;entryX=0.5;entryY=0;entryDx=0;entryDy=0;fontFamily=Verdana;fontSize=30;fontColor=#999999;endSize=3;strokeColor=#FF0000;strokeWidth=0.5;" edge="1" parent="1" source="1x55_960oe8w4erW_eMf-12" target="1x55_960oe8w4erW_eMf-15">
          <mxGeometry relative="1" as="geometry">
            <mxPoint x="550" y="410" as="targetPoint" />
          </mxGeometry>
        </mxCell>
        <mxCell id="1x55_960oe8w4erW_eMf-31" style="edgeStyle=orthogonalEdgeStyle;rounded=0;orthogonalLoop=1;jettySize=auto;html=1;fontFamily=Verdana;fontSize=30;fontColor=#999999;endSize=3;strokeColor=#FF0000;strokeWidth=0.5;" edge="1" parent="1" source="1x55_960oe8w4erW_eMf-12" target="1x55_960oe8w4erW_eMf-17">
          <mxGeometry relative="1" as="geometry" />
        </mxCell>
      </root>
    </mxGraphModel>
  </diagram>
</mxfile>
